<svg width="298" height="298" viewBox="0 0 298 298" fill="none" xmlns="http://www.w3.org/2000/svg">
<g clip-path="url(#clip0_1_13)">
<path d="M149 27.9375C181.108 27.9375 211.9 40.6923 234.604 63.3959C257.308 86.0995 270.062 116.892 270.062 149C270.062 181.108 257.308 211.9 234.604 234.604C211.9 257.308 181.108 270.062 149 270.062C116.892 270.062 86.0995 257.308 63.3959 234.604C40.6923 211.9 27.9375 181.108 27.9375 149C27.9375 116.892 40.6923 86.0995 63.3959 63.3959C86.0995 40.6923 116.892 27.9375 149 27.9375ZM149 298C188.517 298 226.416 282.302 254.359 254.359C282.302 226.416 298 188.517 298 149C298 109.483 282.302 71.584 254.359 43.6411C226.416 15.6982 188.517 0 149 0C109.483 0 71.584 15.6982 43.6411 43.6411C15.6982 71.584 0 109.483 0 149C0 188.517 15.6982 226.416 43.6411 254.359C71.584 282.302 109.483 298 149 298ZM101.855 101.855C96.3844 107.327 96.3844 116.173 101.855 121.586L129.211 148.942L101.855 176.297C96.3844 181.768 96.3844 190.615 101.855 196.028C107.327 201.441 116.173 201.499 121.586 196.028L148.942 168.673L176.297 196.028C181.768 201.499 190.615 201.499 196.028 196.028C201.441 190.557 201.499 181.71 196.028 176.297L168.673 148.942L196.028 121.586C201.499 116.115 201.499 107.268 196.028 101.855C190.557 96.4426 181.71 96.3844 176.297 101.855L148.942 129.211L121.586 101.855C116.115 96.3844 107.268 96.3844 101.855 101.855Z" fill="#FF0000"/>
</g>
<defs>
<clipPath id="clip0_1_13">
<rect width="298" height="298" fill="white"/>
</clipPath>
</defs>
</svg>
